<svg width="16" height="15" viewBox="0 0 16 15" fill="none" xmlns="http://www.w3.org/2000/svg">
<path d="M4.29817 14.5C3.49779 14.5002 2.71532 14.263 2.04978 13.8184C1.38423 13.3738 0.865525 12.7418 0.55929 12.0023C0.253054 11.2628 0.173054 10.4491 0.329411 9.66416C0.485768 8.8792 0.871455 8.15825 1.43767 7.59255L7.40849 1.62103C7.5075 1.52202 7.64178 1.4664 7.7818 1.4664C7.92182 1.4664 8.0561 1.52202 8.15511 1.62103C8.25411 1.72003 8.30974 1.85432 8.30974 1.99433C8.30974 2.13435 8.25411 2.26864 8.15511 2.36764L2.18358 8.33846C1.89448 8.61358 1.66337 8.94378 1.50386 9.3096C1.34435 9.67542 1.25967 10.0695 1.25481 10.4685C1.24995 10.8676 1.32501 11.2636 1.47556 11.6332C1.62611 12.0028 1.84911 12.3385 2.13142 12.6206C2.41374 12.9026 2.74965 13.1254 3.11937 13.2756C3.48909 13.4258 3.88514 13.5006 4.28419 13.4954C4.68324 13.4902 5.07722 13.4052 5.4429 13.2454C5.80859 13.0855 6.13859 12.8542 6.41347 12.5648L14.1259 4.85238C14.4793 4.48742 14.6751 3.99815 14.6711 3.49013C14.667 2.98211 14.4634 2.49606 14.1041 2.13682C13.7449 1.77758 13.2588 1.57396 12.7508 1.56988C12.2428 1.5658 11.7535 1.7616 11.3886 2.11502L5.16934 8.33846C5.00436 8.50344 4.91168 8.72721 4.91168 8.96053C4.91168 9.19385 5.00436 9.41761 5.16934 9.58259C5.33433 9.74757 5.55809 9.84026 5.79141 9.84026C6.02473 9.84026 6.24849 9.74757 6.41347 9.58259L10.3928 5.60251C10.4415 5.55208 10.4997 5.51185 10.5641 5.48416C10.6285 5.45647 10.6977 5.44188 10.7678 5.44124C10.8379 5.44059 10.9074 5.45392 10.9723 5.48042C11.0371 5.50693 11.0961 5.54609 11.1456 5.59562C11.1952 5.64515 11.2344 5.70405 11.261 5.7689C11.2876 5.83375 11.301 5.90324 11.3004 5.97332C11.2998 6.04339 11.2853 6.11265 11.2577 6.17706C11.23 6.24146 11.1898 6.29972 11.1395 6.34842L7.15938 10.3292C6.79648 10.6922 6.30424 10.8962 5.79095 10.8962C5.27766 10.8963 4.78537 10.6925 4.42238 10.3296C4.05938 9.96666 3.85541 9.47442 3.85535 8.96113C3.85528 8.44784 4.05912 7.95555 4.42202 7.59255L10.6427 1.37614C11.2035 0.815223 11.9642 0.500066 12.7574 0.5C13.5505 0.499934 14.3113 0.814965 14.8722 1.37579C15.4331 1.93661 15.7483 2.69729 15.7483 3.49049C15.7484 4.28368 15.4334 5.04441 14.8725 5.60533L7.16009 13.315C6.78507 13.6919 6.33904 13.9907 5.8478 14.1941C5.35656 14.3975 4.82986 14.5015 4.29817 14.5Z" fill="black" fill-opacity="0.8"/>
</svg>
