<svg width="18" height="18" viewBox="0 0 18 18" fill="none" xmlns="http://www.w3.org/2000/svg">
<path d="M17.2 8.55V6.12C17.2 4.60786 17.2 3.85179 16.9057 3.27423C16.6469 2.76619 16.2338 2.35314 15.7258 2.09428C15.1482 1.8 14.3921 1.8 12.88 1.8H5.32C3.80786 1.8 3.05179 1.8 2.47423 2.09428C1.96619 2.35314 1.55314 2.76619 1.29428 3.27423C1 3.85179 1 4.60786 1 6.12V13.68C1 15.1921 1 15.9482 1.29428 16.5258C1.55314 17.0338 1.96619 17.4469 2.47423 17.7057C3.05179 18 3.80786 18 5.32 18H9.55M17.2 7.2H1M12.7 0V3.6M5.5 0V3.6M14.5 17.1V11.7M11.8 14.4H17.2" stroke="black" stroke-opacity="0.8" stroke-linecap="round" stroke-linejoin="round"/>
</svg>
