<svg width="15" height="15" viewBox="0 0 15 15" fill="none" xmlns="http://www.w3.org/2000/svg">
<path d="M0.231934 13.1977H14.6261V14.3972H0.231934V13.1977ZM7.42903 11.3984C6.31557 11.3984 5.24771 10.9561 4.46038 10.1688C3.67304 9.38144 3.23072 8.31358 3.23072 7.20012V0.602783H4.43024V7.20012C4.43024 7.99545 4.74618 8.7582 5.30857 9.32059C5.87095 9.88297 6.6337 10.1989 7.42903 10.1989C8.22436 10.1989 8.98711 9.88297 9.5495 9.32059C10.1119 8.7582 10.4278 7.99545 10.4278 7.20012V0.602783H11.6273V7.20012C11.6273 8.31358 11.185 9.38144 10.3977 10.1688C9.61035 10.9561 8.54249 11.3984 7.42903 11.3984Z" fill="#212529"/>
</svg>
