<svg width="17" height="14" viewBox="0 0 17 14" fill="none" xmlns="http://www.w3.org/2000/svg">
<path d="M4.63797 1.97215C4.90532 1.6157 5.03899 1.43747 5.20839 1.30893C5.35843 1.19507 5.52834 1.11012 5.70945 1.0584C5.91393 1 6.13671 1 6.58228 1H12.3544C13.6305 1 14.2685 1 14.7559 1.24834C15.1847 1.46679 15.5332 1.81535 15.7517 2.24407C16 2.73147 16 3.3695 16 4.64557V9.50633C16 10.7824 16 11.4204 15.7517 11.9078C15.5332 12.3366 15.1847 12.6851 14.7559 12.9036C14.2685 13.1519 13.6305 13.1519 12.3544 13.1519H6.58228C6.13671 13.1519 5.91393 13.1519 5.70945 13.0935C5.52834 13.0418 5.35843 12.9568 5.20839 12.843C5.03899 12.7144 4.90532 12.5362 4.63797 12.1797L1.35696 7.80506C1.16087 7.5436 1.06282 7.41287 1.02502 7.26929C0.991659 7.14256 0.991659 7.00934 1.02502 6.88261C1.06282 6.73903 1.16087 6.6083 1.35696 6.34684L4.63797 1.97215Z" stroke="black" stroke-opacity="0.8" stroke-linecap="round" stroke-linejoin="round"/>
</svg>
