<svg width="16" height="15" viewBox="0 0 16 15" fill="none" xmlns="http://www.w3.org/2000/svg">
<path d="M14.0033 14.4975H1.81219C0.812519 14.4975 0 13.685 0 12.6853V1.81219C0 0.812519 0.812519 0 1.81219 0H14.0033C15.0029 0 15.8155 0.812519 15.8155 1.81219V12.6853C15.8155 13.685 15.0029 14.4975 14.0033 14.4975ZM1.81219 0.988466C1.35815 0.988466 0.988466 1.35815 0.988466 1.81219V12.6853C0.988466 13.1393 1.35815 13.509 1.81219 13.509H14.0033C14.4573 13.509 14.827 13.1393 14.827 12.6853V1.81219C14.827 1.35815 14.4573 0.988466 14.0033 0.988466H1.81219Z" fill="black" fill-opacity="0.8"/>
<mask id="path-2-inside-1_32_4963" fill="white">
<path d="M15.3212 4.04489H0.494233C0.221416 4.04489 0 3.82348 0 3.55066C0 3.27784 0.221416 3.05643 0.494233 3.05643H15.3212C15.594 3.05643 15.8155 3.27784 15.8155 3.55066C15.8155 3.82348 15.594 4.04489 15.3212 4.04489Z"/>
</mask>
<path d="M15.3212 4.04489H0.494233C0.221416 4.04489 0 3.82348 0 3.55066C0 3.27784 0.221416 3.05643 0.494233 3.05643H15.3212C15.594 3.05643 15.8155 3.27784 15.8155 3.55066C15.8155 3.82348 15.594 4.04489 15.3212 4.04489Z" fill="black" fill-opacity="0.8"/>
<path d="M15.3212 3.04489H0.494233V5.04489H15.3212V3.04489ZM0.494233 3.04489C0.773701 3.04489 1 3.27119 1 3.55066H-1C-1 4.37576 -0.330868 5.04489 0.494233 5.04489V3.04489ZM1 3.55066C1 3.83013 0.773701 4.05643 0.494233 4.05643V2.05643C-0.330868 2.05643 -1 2.72556 -1 3.55066H1ZM0.494233 4.05643H15.3212V2.05643H0.494233V4.05643ZM15.3212 4.05643C15.0418 4.05643 14.8155 3.83013 14.8155 3.55066H16.8155C16.8155 2.72556 16.1463 2.05643 15.3212 2.05643V4.05643ZM14.8155 3.55066C14.8155 3.27119 15.0418 3.04489 15.3212 3.04489V5.04489C16.1463 5.04489 16.8155 4.37576 16.8155 3.55066H14.8155Z" fill="black" fill-opacity="0.8" mask="url(#path-2-inside-1_32_4963)"/>
<path d="M8.34854 8.09338C7.53539 7.77861 7.47457 7.59369 7.47457 7.34742C7.47457 7.11066 7.65845 6.8575 8.17456 6.8575C8.56824 6.8575 8.8692 6.9764 9.05205 7.07615C9.13643 7.12212 9.23697 7.12838 9.32644 7.09347C9.41604 7.05844 9.48545 6.98564 9.51618 6.89448L9.70997 6.32121C9.75985 6.17327 9.69773 6.01074 9.5619 5.93378C9.35835 5.81839 8.91075 5.625 8.19852 5.625C6.99011 5.625 6.11275 6.38333 6.11275 7.42816C6.11275 8.27779 6.65373 8.88257 7.75873 9.27418C8.51393 9.56459 8.57527 9.79835 8.57527 10.0522C8.57527 10.5963 8.00708 10.655 7.76264 10.655C7.39305 10.655 6.98608 10.5403 6.67378 10.3481C6.58757 10.295 6.4817 10.285 6.38767 10.321C6.29299 10.3568 6.22058 10.4347 6.19154 10.5313L6.01378 11.1207C5.97263 11.258 6.02576 11.406 6.14505 11.4856C6.49993 11.7222 7.14522 11.8875 7.71419 11.8875C9.25533 11.8875 9.94516 10.9373 9.94516 9.99565C9.94503 8.85588 9.09177 8.38028 8.34854 8.09338Z" fill="black" fill-opacity="0.8"/>
</svg>
