<svg width="15" height="13" viewBox="0 0 15 13" fill="none" xmlns="http://www.w3.org/2000/svg">
<path d="M14.1498 1.83463C13.8827 1.56664 13.5654 1.35401 13.216 1.20892C12.8666 1.06384 12.492 0.989151 12.1136 0.989151C11.7353 0.989151 11.3607 1.06384 11.0113 1.20892C10.6619 1.35401 10.3445 1.56664 10.0775 1.83463L10.7578 2.51494C10.9362 2.33658 11.1479 2.19509 11.381 2.09856C11.614 2.00203 11.8638 1.95234 12.116 1.95234C12.3683 1.95234 12.6181 2.00203 12.8511 2.09856C13.0841 2.19509 13.2959 2.33658 13.4743 2.51494C13.6526 2.69331 13.7941 2.90506 13.8906 3.13811C13.9872 3.37115 14.0369 3.62093 14.0369 3.87318C14.0369 4.12543 13.9872 4.3752 13.8906 4.60825C13.7941 4.8413 13.6526 5.05305 13.4743 5.23142L9.6415 9.06418C9.2819 9.42441 8.79394 9.62703 8.28495 9.62748C7.77596 9.62793 7.28764 9.42617 6.92742 9.06658C6.56719 8.70698 6.36456 8.21902 6.36412 7.71003C6.36367 7.20105 6.56543 6.71273 6.92502 6.3525L7.60055 5.67218L6.92502 4.99187L6.24471 5.67218C5.97672 5.93924 5.76409 6.25657 5.619 6.60598C5.47391 6.95539 5.39923 7.33001 5.39923 7.70834C5.39923 8.08668 5.47391 8.46129 5.619 8.8107C5.76409 9.16011 5.97672 9.47744 6.24471 9.7445C6.7868 10.2796 7.51914 10.5778 8.28086 10.5733C8.66065 10.5749 9.03698 10.5012 9.38811 10.3565C9.73925 10.2117 10.0582 9.99885 10.3266 9.73013L14.1594 5.89736C14.6964 5.35711 14.9971 4.62578 14.9953 3.86401C14.9935 3.10224 14.6894 2.37234 14.1498 1.83463Z" fill="#212529"/>
<path d="M2.14365 10.4871C1.96475 10.309 1.82279 10.0974 1.72592 9.86429C1.62906 9.6312 1.57919 9.38127 1.57919 9.12886C1.57919 8.87645 1.62906 8.62652 1.72592 8.39343C1.82279 8.16035 1.96475 7.94869 2.14365 7.77062L5.97641 3.93786C6.15448 3.75896 6.36613 3.617 6.59922 3.52013C6.83231 3.42327 7.08224 3.3734 7.33465 3.3734C7.58706 3.3734 7.83699 3.42327 8.07008 3.52013C8.30316 3.617 8.51482 3.75896 8.69289 3.93786C8.87065 4.11733 9.01059 4.33065 9.10441 4.56519C9.19822 4.79973 9.24401 5.05072 9.23905 5.30328C9.24052 5.55663 9.19173 5.80775 9.09551 6.04212C8.9993 6.27649 8.85756 6.48946 8.67851 6.6687L7.66283 7.69876L8.34315 8.37907L9.35883 7.36339C9.89949 6.82273 10.2032 6.08944 10.2032 5.32484C10.2032 4.56023 9.89949 3.82694 9.35883 3.28629C8.81817 2.74563 8.08488 2.44189 7.32028 2.44189C6.55567 2.44189 5.82238 2.74563 5.28172 3.28629L1.44896 7.11905C1.18025 7.3862 0.967007 7.70383 0.821496 8.05368C0.675984 8.40353 0.601074 8.7787 0.601074 9.15761C0.601074 9.53651 0.675984 9.91168 0.821496 10.2615C0.967007 10.6114 1.18025 10.929 1.44896 11.1962C1.99456 11.7272 2.72857 12.0201 3.4899 12.0106C4.25794 12.0114 4.99509 11.7082 5.54043 11.1674L4.86012 10.4871C4.68205 10.666 4.4704 10.808 4.23731 10.9048C4.00422 11.0017 3.7543 11.0515 3.50188 11.0515C3.24947 11.0515 2.99954 11.0017 2.76645 10.9048C2.53337 10.808 2.32171 10.666 2.14365 10.4871Z" fill="#212529"/>
</svg>
