<svg width="343" height="123" viewBox="0 0 343 123" fill="none" xmlns="http://www.w3.org/2000/svg">
<path d="M196.045 11.4359V64.5847C196.045 67.8658 193.359 70.5438 190.069 70.5438H149.831C148.621 70.5438 147.484 70.1819 146.54 69.5546C144.919 68.4931 143.855 66.6596 143.855 64.5847V11.4359C143.855 8.15476 146.54 5.47681 149.831 5.47681H190.069C192.101 5.47681 193.892 6.49009 194.956 8.03414C195.634 8.99917 196.045 10.1813 196.045 11.4359Z" fill="#BDBDBD"/>
<g opacity="0.3">
<path d="M189.786 11.4358V64.5847C189.786 67.8657 187.1 70.5437 183.809 70.5437H143.572C142.362 70.5437 141.225 70.1818 140.281 69.5546L144.443 65.6221L186.422 9.81933L188.697 8.03404C189.374 8.99907 189.786 10.1812 189.786 11.4358Z" fill="#313232"/>
</g>
<path d="M64.7964 64.1023C64.7964 64.1023 59.9815 65.767 58.7959 61.6174C57.6103 57.4677 55.0697 58.5051 54.489 56.3338C54.247 55.3929 54.1503 53.9454 54.1261 52.5943C54.0777 50.7367 54.9003 48.9755 56.3037 47.721C56.6908 47.3832 56.957 47.0213 57.0054 46.6594C57.1021 45.5255 54.4406 44.4399 54.6826 42.6546C54.9245 40.8693 56.4247 40.9416 56.5698 39.8319C56.715 38.698 57.0054 38.1189 55.6746 37.2263C54.3438 36.3336 52.8437 35.8994 55.1181 33.5109C57.3683 31.0984 68.7403 29.9645 71.8616 33.3179C74.9829 36.6714 70.6276 38.6497 74.8377 41.3277C74.8377 41.3277 78.7574 42.1721 81.0318 42.0273C82.9917 41.9067 82.8223 46.6836 79.2897 49.0961C77.5476 50.2783 76.5798 52.4255 77.0153 54.4762C77.0476 54.6692 77.0879 54.8461 77.1363 55.0069C77.8622 57.0335 74.7409 55.8031 73.7973 59.5908C72.8536 63.3544 64.7964 64.1023 64.7964 64.1023Z" fill="#EEEEEE"/>
<path d="M66.9742 47.0695L65.7644 84.1989H70.4584L68.1114 47.0695H66.9742Z" fill="#BDBDBD"/>
<path d="M66.7562 66.0809L63.0785 61.3764C62.4494 60.5802 62.0381 59.5911 61.9171 58.5778L61.7235 56.9614L62.3526 56.889L63.2478 59.7117C63.272 59.9288 63.4656 60.0736 63.6834 60.0495C63.8769 60.0253 64.0221 59.8323 63.9979 59.6152L64.0947 54.7177L64.7238 54.5488L65.6432 61.883L67.7483 63.7166L66.7562 66.0809Z" fill="#BDBDBD"/>
<path d="M70.2646 47.3585L69.6355 52.5455C69.6355 53.0763 69.4178 53.5829 69.0065 53.8966C68.7887 54.0654 68.4983 54.1861 68.1112 54.1861V56.0438C68.1112 56.0438 70.7969 55.1752 71.1841 53.8242C71.5712 52.449 71.1841 47.3585 71.1841 47.3585H70.2646Z" fill="#BDBDBD"/>
<path d="M269.372 64.1023C269.372 64.1023 264.557 65.767 263.372 61.6174C262.186 57.4677 259.645 58.5051 259.065 56.3338C258.823 55.3929 258.726 53.9454 258.702 52.5943C258.653 50.7367 259.5 48.9755 260.879 47.721C261.267 47.3832 261.557 47.0213 261.581 46.6594C261.678 45.5255 259.016 44.4399 259.258 42.6546C259.5 40.8693 261 40.9416 261.146 39.8319C261.291 38.698 261.581 38.1189 260.25 37.2263C258.92 36.3336 257.419 35.8994 259.694 33.5109C261.968 31.0984 273.316 29.9645 276.437 33.3179C279.559 36.6714 275.203 38.6497 279.413 41.3277C279.413 41.3277 283.333 42.1721 285.608 42.0273C287.567 41.9067 287.422 46.6836 283.89 49.0961C282.123 50.2783 281.156 52.4255 281.591 54.4762C281.623 54.6692 281.672 54.8461 281.736 55.0069C282.438 57.0335 279.317 55.8031 278.373 59.5908C277.429 63.3544 269.372 64.1023 269.372 64.1023Z" fill="#EEEEEE"/>
<path d="M271.55 47.0695L270.34 84.1989H275.034L272.687 47.0695H271.55Z" fill="#BDBDBD"/>
<path d="M271.332 66.0809L267.654 61.3764C267.025 60.5802 266.614 59.5911 266.493 58.5778L266.299 56.9614L266.928 56.889L267.824 59.7117C267.848 59.9288 268.041 60.0736 268.259 60.0495C268.453 60.0253 268.598 59.8323 268.574 59.6152L268.67 54.7177L269.324 54.5488L270.219 61.883L272.324 63.7166L271.332 66.0809Z" fill="#BDBDBD"/>
<path d="M274.84 47.3585L274.211 52.5455C274.211 53.0763 273.993 53.5829 273.582 53.8966C273.364 54.0654 273.074 54.1861 272.687 54.1861V56.0438C272.687 56.0438 275.397 55.1752 275.76 53.8242C276.147 52.449 275.76 47.3585 275.76 47.3585H274.84Z" fill="#BDBDBD"/>
<path d="M0 116.72C0 116.72 35.4469 71.6527 170.314 70.567C305.206 69.4814 343 122.703 343 122.703" fill="url(#paint0_linear_29_4423)" fill-opacity="0.3"/>
<path d="M192.681 65.6215H150.702V9.81877H192.681V65.6215Z" fill="white"/>
<path opacity="0.4" d="M146.661 64.5124V11.5082C146.661 8.17888 149.371 5.47681 152.71 5.47681H149.904C146.565 5.47681 143.855 8.17888 143.855 11.5082V64.5124C143.855 67.8417 146.565 70.5438 149.904 70.5438H152.71C149.371 70.5438 146.661 67.8417 146.661 64.5124Z" fill="#4A4A4A"/>
<path opacity="0.4" d="M164.856 10.9775H159.557L158.299 5.47681H161.469L164.856 10.9775Z" fill="#596291"/>
<path d="M184.286 2.94334H177.39C176.906 1.23041 175.333 0 173.47 0C171.583 0 170.01 1.23041 169.526 2.94334H161.977C160.646 2.94334 159.558 4.02899 159.558 5.35591V10.9772H186.681V5.35591C186.681 4.02899 185.617 2.94334 184.286 2.94334Z" fill="url(#paint1_linear_29_4423)"/>
<path d="M176.107 4.07679C176.107 5.54845 174.922 6.73061 173.47 6.73061C171.994 6.73061 170.809 5.54845 170.809 4.07679C170.809 2.62925 171.994 1.44708 173.47 1.44708C174.922 1.44708 176.107 2.62925 176.107 4.07679Z" fill="white"/>
<path d="M187.431 17.4909H158.275C157.888 17.4909 157.597 17.2014 157.597 16.8154C157.597 16.4535 157.888 16.164 158.275 16.164H187.431C187.818 16.164 188.108 16.4535 188.108 16.8154C188.108 17.2014 187.818 17.4909 187.431 17.4909Z" fill="#EFEFF4"/>
<path d="M176.494 20.6277H158.275C157.888 20.6277 157.597 20.3141 157.597 19.9522C157.597 19.5903 157.888 19.2767 158.275 19.2767H176.494C176.857 19.2767 177.148 19.5903 177.148 19.9522C177.148 20.3141 176.857 20.6277 176.494 20.6277Z" fill="#EFEFF4"/>
<path d="M187.431 25.0668H158.275C157.888 25.0668 157.597 24.7773 157.597 24.4154C157.597 24.0294 157.888 23.7399 158.275 23.7399H187.431C187.818 23.7399 188.108 24.0294 188.108 24.4154C188.108 24.7773 187.818 25.0668 187.431 25.0668Z" fill="#EFEFF4"/>
<path d="M176.494 28.2029H158.275C157.888 28.2029 157.597 27.8893 157.597 27.5274C157.597 27.1655 157.888 26.8519 158.275 26.8519H176.494C176.857 26.8519 177.148 27.1655 177.148 27.5274C177.148 27.8893 176.857 28.2029 176.494 28.2029Z" fill="#EFEFF4"/>
<path d="M187.431 32.6419H158.275C157.888 32.6419 157.597 32.3524 157.597 31.9905C157.597 31.6045 157.888 31.315 158.275 31.315H187.431C187.818 31.315 188.108 31.6045 188.108 31.9905C188.108 32.3524 187.818 32.6419 187.431 32.6419Z" fill="#EFEFF4"/>
<path d="M176.494 35.7781H158.275C157.888 35.7781 157.597 35.4644 157.597 35.1025C157.597 34.7407 157.888 34.427 158.275 34.427H176.494C176.857 34.427 177.148 34.7407 177.148 35.1025C177.148 35.4644 176.857 35.7781 176.494 35.7781Z" fill="#EFEFF4"/>
<path d="M187.431 41.0864H158.275C157.888 41.0864 157.597 40.7728 157.597 40.4109C157.597 40.049 157.888 39.7354 158.275 39.7354H187.431C187.818 39.7354 188.108 40.049 188.108 40.4109C188.108 40.7728 187.818 41.0864 187.431 41.0864Z" fill="#EFEFF4"/>
<path d="M176.494 44.1982H158.275C157.888 44.1982 157.597 43.9087 157.597 43.5468C157.597 43.1608 157.888 42.8713 158.275 42.8713H176.494C176.857 42.8713 177.148 43.1608 177.148 43.5468C177.148 43.9087 176.857 44.1982 176.494 44.1982Z" fill="#EFEFF4"/>
<path d="M187.431 49.5052H158.275C157.888 49.5052 157.597 49.2156 157.597 48.8538C157.597 48.4677 157.888 48.1782 158.275 48.1782H187.431C187.818 48.1782 188.108 48.4677 188.108 48.8538C188.108 49.2156 187.818 49.5052 187.431 49.5052Z" fill="#EFEFF4"/>
<path d="M176.494 52.6427H158.275C157.888 52.6427 157.597 52.329 157.597 51.9671C157.597 51.6053 157.888 51.2916 158.275 51.2916H176.494C176.857 51.2916 177.148 51.6053 177.148 51.9671C177.148 52.329 176.857 52.6427 176.494 52.6427Z" fill="#EFEFF4"/>
<path d="M187.431 58.6015H158.275C157.888 58.6015 157.597 58.312 157.597 57.9501C157.597 57.5641 157.888 57.2746 158.275 57.2746H187.431C187.818 57.2746 188.108 57.5641 188.108 57.9501C188.108 58.312 187.818 58.6015 187.431 58.6015Z" fill="#EFEFF4"/>
<path d="M176.494 61.7376H158.275C157.888 61.7376 157.597 61.4239 157.597 61.0621C157.597 60.7002 157.888 60.3865 158.275 60.3865H176.494C176.857 60.3865 177.148 60.7002 177.148 61.0621C177.148 61.4239 176.857 61.7376 176.494 61.7376Z" fill="#EFEFF4"/>
<path d="M153.121 19.8075C152.831 19.3732 152.516 18.939 152.178 18.5047C152.444 19.2285 152.758 19.8799 153.097 20.5554L153.291 20.29C154.283 19.0355 155.468 17.8774 156.969 17.2502C155.347 17.3708 154.017 18.5288 153.121 19.8075Z" fill="#212529"/>
<path d="M153.121 26.9483C152.831 26.5141 152.516 26.0798 152.178 25.6697C152.444 26.3693 152.758 27.0448 153.097 27.6962L153.291 27.4308C154.283 26.1763 155.468 25.0424 156.969 24.4151C155.347 24.5357 154.017 25.6697 153.121 26.9483Z" fill="#212529"/>
<path d="M153.121 34.1141C152.831 33.6558 152.516 33.2215 152.178 32.8114C152.444 33.511 152.758 34.1865 153.097 34.8379L153.291 34.5725C154.283 33.318 155.468 32.1841 156.969 31.5568C155.347 31.6775 154.017 32.8114 153.121 34.1141Z" fill="#212529"/>
<path d="M153.121 42.7988C152.831 42.3404 152.516 41.9061 152.178 41.496C152.444 42.1956 152.758 42.8711 153.097 43.5467L153.291 43.2572C154.283 42.0026 155.468 40.8687 156.969 40.2415C155.347 40.3621 154.017 41.496 153.121 42.7988Z" fill="#212529"/>
<path d="M153.121 51.4848C152.831 51.0265 152.516 50.5922 152.178 50.1821C152.444 50.8817 152.758 51.5572 153.097 52.2327L153.291 51.9432C154.283 50.6887 155.468 49.5548 156.969 48.9275C155.347 49.0482 154.017 50.1821 153.121 51.4848Z" fill="#212529"/>
<path d="M153.121 60.1695C152.831 59.7111 152.516 59.2768 152.178 58.8667C152.444 59.5663 152.758 60.2419 153.097 60.9174L153.291 60.6279C154.283 59.3733 155.468 58.2394 156.969 57.6122C155.347 57.7328 154.017 58.8667 153.121 60.1695Z" fill="#212529"/>
<defs>
<linearGradient id="paint0_linear_29_4423" x1="167.514" y1="122.696" x2="167.514" y2="70.5608" gradientUnits="userSpaceOnUse">
<stop stop-color="white"/>
<stop offset="1" stop-color="#BEBEBE"/>
</linearGradient>
<linearGradient id="paint1_linear_29_4423" x1="175.574" y1="0.174911" x2="175.369" y2="10.6906" gradientUnits="userSpaceOnUse">
<stop stop-color="#BDBDBD"/>
<stop offset="1" stop-color="#EEEEEE"/>
</linearGradient>
</defs>
</svg>
