<svg width="15" height="19" viewBox="0 0 15 19" fill="none" xmlns="http://www.w3.org/2000/svg">
<path d="M9.74861 18.4516H0.54834V0.548386H9.00264C9.99941 0.548445 10.9753 0.833795 11.8151 1.37073C12.6549 1.90766 13.3235 2.67374 13.7419 3.57846C14.1603 4.48318 14.3109 5.48875 14.1761 6.47636C14.0413 7.46398 13.6267 8.39237 12.9811 9.15188C13.8243 9.82619 14.4377 10.7453 14.737 11.7826C15.0362 12.82 15.0065 13.9246 14.6521 14.9444C14.2976 15.9641 13.6357 16.849 12.7576 17.4771C11.8795 18.1052 10.8282 18.4456 9.74861 18.4516ZM3.53221 15.4677H9.72871C10.0226 15.4677 10.3136 15.4099 10.5851 15.2974C10.8566 15.1849 11.1033 15.0201 11.3112 14.8123C11.519 14.6045 11.6838 14.3578 11.7963 14.0862C11.9087 13.8147 11.9666 13.5237 11.9666 13.2298C11.9666 12.936 11.9087 12.6449 11.7963 12.3734C11.6838 12.1019 11.519 11.8552 11.3112 11.6474C11.1033 11.4396 10.8566 11.2747 10.5851 11.1623C10.3136 11.0498 10.0226 10.9919 9.72871 10.9919H3.53221V15.4677ZM3.53221 8.00806H9.00264C9.29653 8.00806 9.58753 7.95018 9.85905 7.83771C10.1306 7.72525 10.3773 7.5604 10.5851 7.3526C10.7929 7.14479 10.9577 6.89808 11.0702 6.62657C11.1827 6.35505 11.2405 6.06404 11.2405 5.77016C11.2405 5.47627 11.1827 5.18527 11.0702 4.91375C10.9577 4.64224 10.7929 4.39553 10.5851 4.18772C10.3773 3.97991 10.1306 3.81507 9.85905 3.70261C9.58753 3.59014 9.29653 3.53226 9.00264 3.53226H3.53221V8.00806Z" fill="#212529"/>
</svg>
