<svg width="19" height="19" viewBox="0 0 19 19" fill="none" xmlns="http://www.w3.org/2000/svg">
<g clip-path="url(#clip0_29_4479)">
<path d="M18.5 3.29767C18.4625 2.52517 18.095 1.80517 17.495 1.31767C16.4225 0.440168 14.7875 0.560168 13.76 1.58767L12.5075 2.84017C11.9 2.43517 11.18 2.21017 10.43 2.21017C9.42499 2.21017 8.48749 2.60017 7.77499 3.30517L5.50249 5.57767C5.20999 5.87017 5.20999 6.34267 5.50249 6.63517C5.79499 6.92767 6.26749 6.92767 6.55999 6.63517L8.83249 4.36267C9.49999 3.69517 10.5575 3.55267 11.3975 3.93517L2.05249 13.2952C1.53499 13.8127 1.24999 14.4952 1.24999 15.2227C1.24999 15.6952 1.36999 16.1452 1.59499 16.5502L0.72499 17.4202C0.43249 17.7127 0.43249 18.1852 0.72499 18.4777C0.87499 18.6277 1.06249 18.6952 1.25749 18.6952C1.45249 18.6952 1.63999 18.6202 1.78999 18.4777L2.65999 17.6077C3.05749 17.8327 3.51499 17.9527 3.98749 17.9527C4.71499 17.9527 5.40499 17.6677 5.91499 17.1502L17.6975 5.36017C18.245 4.81267 18.53 4.06267 18.4925 3.29017L18.5 3.29767ZM4.84999 16.0927C4.38499 16.5577 3.57499 16.5577 3.10999 16.0927C2.87749 15.8602 2.74999 15.5527 2.74999 15.2227C2.74999 14.8927 2.87749 14.5852 3.10999 14.3527L12.56 4.91017L14.3 6.65017L4.84999 16.0927ZM16.64 4.30267L15.3575 5.58517L13.6175 3.84517L14.8175 2.64517C15.095 2.36767 15.455 2.22517 15.8075 2.22517C16.0775 2.22517 16.3325 2.30767 16.5425 2.48017C16.82 2.70517 16.9775 3.02017 17 3.37267C17.015 3.71767 16.8875 4.06267 16.64 4.30267Z" fill="white"/>
</g>
<defs>
<clipPath id="clip0_29_4479">
<rect width="18" height="18" fill="white" transform="translate(0.5 0.702667)"/>
</clipPath>
</defs>
</svg>
